<?xml version="1.0" encoding="utf-8"?>
<!-- Generator: Adobe Illustrator 17.0.2, SVG Export Plug-In . SVG Version: 6.00 Build 0)  -->
<!DOCTYPE svg PUBLIC "-//W3C//DTD SVG 1.1//EN" "http://www.w3.org/Graphics/SVG/1.1/DTD/svg11.dtd">
<svg version="1.1" id="Layer_1" xmlns="http://www.w3.org/2000/svg" xmlns:xlink="http://www.w3.org/1999/xlink" x="0px" y="0px"
	 width="40px" height="40px" viewBox="0 0 40 40" enable-background="new 0 0 40 40" xml:space="preserve">
<path fill="#FFFFFF" d="M25,0c-5.5,0-10,4.5-10,10v5h-5C4.5,15,0,19.5,0,25v10v5h15c5.5,0,10-4.5,10-10v-5h5c5.5,0,10-4.5,10-10V5V0
	H25z M22,30c0,3.86-3.141,7-7,7H3v-5c0-3.86,3.141-7,7-7h12V30z M37,8c0,3.86-3.141,7-7,7H18v-5c0-3.86,3.141-7,7-7h12V8z"/>
</svg>
